<svg xmlns="http://www.w3.org/2000/svg" version="1.1" viewBox="-5.0 -10.0 110.0 135.0">
 <path d="m24.719 66.262c-0.48047 0.32031-0.78906 0.80859-0.85938 1.3789-0.078125 0.58984 0.10156 1.1797 0.5 1.6289 6.4805 7.4492 15.828 11.719 25.648 11.719 9.8203 0 19.18-4.2695 25.648-11.719 0.39062-0.44922 0.57812-1.0508 0.5-1.6406-0.078125-0.57031-0.37891-1.0586-0.85938-1.3789-0.82812-0.55859-1.9609-0.39844-2.6289 0.37109-5.7109 6.5898-13.969 10.371-22.66 10.371-8.6914 0-16.949-3.7812-22.66-10.371-0.66016-0.76953-1.7891-0.92969-2.6211-0.37109z"/>
 <path d="m59.289 56.461c-2.5586 2.2812-5.8594 3.5391-9.2891 3.5391s-6.7305-1.2617-9.2891-3.5391c-0.39063-0.35156-0.87891-0.53906-1.3906-0.53906-0.39062 0-0.76172 0.10938-1.0781 0.32031-0.51953 0.35156-0.85156 0.91016-0.89063 1.5312-0.039062 0.60937 0.19141 1.1914 0.62891 1.5898 3.3086 2.9805 7.5781 4.6289 12.02 4.6289s8.7109-1.6406 12.02-4.6289c0.44922-0.39844 0.67969-0.98047 0.62891-1.5898-0.050782-0.62891-0.37109-1.1914-0.89063-1.5312-0.75-0.5-1.7695-0.41016-2.4688 0.21094z"/>
 <path d="m74 31c0-6.6211-5.3789-12-12-12h-24c-6.6211 0-12 5.3789-12 12s5.3789 12 12 12h24c6.6211 0 12-5.3789 12-12zm-12 8h-24c-4.4102 0-8-3.5898-8-8s3.5898-8 8-8h24c4.4102 0 8 3.5898 8 8s-3.5898 8-8 8z"/>
<text x="0.0" y="117.5" font-size="5.0" font-weight="bold" font-family="Arbeit Regular, Helvetica, Arial-Unicode, Arial, Sans-serif" fill="#000000">Created by Gregor Cresnar</text><text x="0.0" y="122.5" font-size="5.0" font-weight="bold" font-family="Arbeit Regular, Helvetica, Arial-Unicode, Arial, Sans-serif" fill="#000000">from Noun Project</text></svg>