<svg xmlns="http://www.w3.org/2000/svg" xmlns:xlink="http://www.w3.org/1999/xlink" xmlns:serif="http://www.serif.com/" viewBox="0 0 101 126.25" version="1.1" xml:space="preserve" style="" x="0px" y="0px" fill-rule="evenodd" clip-rule="evenodd" stroke-linejoin="round" stroke-miterlimit="2"><rect serif:id="Page 28" x="0.757" y="0.723" width="100" height="100" style="" fill="none"/><path d="M75.691,64.807l-10.563,-18.297c-0.429,-0.742 -0.175,-1.691 0.568,-2.12l17.265,-9.968c0.742,-0.428 1.691,-0.174 2.12,0.569c-0,-0 5.508,9.54 9.082,15.73c2.125,3.682 2.125,8.217 -0,11.899c-3.531,6.116 -9.3,16.107 -12.25,21.218c-1.433,2.481 -4.08,4.009 -6.945,4.009l-8.698,-0l0,3.627c0,1.267 -0.87,2.369 -2.102,2.662c-1.233,0.293 -2.506,-0.298 -3.077,-1.429c-2.385,-4.727 -5.999,-11.889 -7.364,-14.595c-0.567,-1.123 -0.567,-2.448 -0,-3.57c1.365,-2.706 4.979,-9.869 7.364,-14.595c0.571,-1.131 1.844,-1.723 3.077,-1.429c1.232,0.293 2.102,1.394 2.102,2.661l0,3.628l9.421,0Zm11.833,3.104l-22.806,-0c-0.857,-0 -1.552,-0.695 -1.552,-1.552l0,-3.634l-6.668,13.215c-0.123,0.243 -0.123,0.53 -0,0.774l6.668,13.215l0,-3.634c0,-0.857 0.695,-1.552 1.552,-1.552c0,-0 6.108,-0 10.25,-0c1.756,-0 3.379,-0.937 4.257,-2.457l8.299,-14.375Zm-71.053,9.466l-9.64,-16.697c-1.432,-2.481 -1.432,-5.538 0,-8.019l4.349,-7.533l-3.141,-1.814c-1.097,-0.633 -1.616,-1.937 -1.254,-3.151c0.362,-1.214 1.511,-2.021 2.776,-1.95c5.286,0.298 13.296,0.749 16.322,0.92c1.255,0.07 2.403,0.733 3.092,1.785c1.66,2.535 6.056,9.247 8.957,13.675c0.694,1.06 0.57,2.458 -0.301,3.379c-0.87,0.921 -2.259,1.123 -3.356,0.49l-3.142,-1.814l-4.71,8.159l21.127,0c0.857,0 1.552,0.695 1.552,1.552l-0,19.936c-0,0.857 -0.695,1.552 -1.552,1.552c-0,-0 -11.016,-0 -18.164,-0c-4.251,-0 -8.179,-2.268 -10.305,-5.949l-2.602,-4.508c-0.003,-0.004 -0.005,-0.008 -0.008,-0.013Zm8.16,-9.466l-5.02,8.695l2.158,3.74c1.571,2.721 4.475,4.397 7.617,4.397l16.612,-0l-0,-16.832l-21.367,-0Zm6.71,-14.727c0,0 3.147,1.817 3.147,1.817l-8.11,-12.383c-0.149,-0.228 -0.398,-0.371 -0.67,-0.386l-14.779,-0.833l3.147,1.817c0.743,0.429 0.997,1.378 0.568,2.12c0,0 -3.054,5.29 -5.125,8.877c-0.878,1.521 -0.878,3.394 0,4.915l8.299,14.374l11.403,-19.75c0.429,-0.742 1.378,-0.996 2.12,-0.568Zm57.975,11.623l2.159,-3.739c1.571,-2.721 1.571,-6.074 -0,-8.795l-8.306,-14.386l-14.577,8.416l10.683,18.504l10.041,0Zm-38.259,-42.668l-10.564,18.297c-0.428,0.742 -1.377,0.997 -2.12,0.568l-17.265,-9.968c-0.742,-0.428 -0.996,-1.378 -0.568,-2.12c0,0 5.509,-9.54 9.083,-15.731c2.125,-3.681 6.053,-5.949 10.304,-5.949c7.062,0 18.599,0 24.5,0c2.865,0 5.512,1.529 6.944,4.009l4.35,7.533l3.141,-1.813c1.097,-0.634 2.486,-0.431 3.356,0.49c0.871,0.92 0.995,2.318 0.301,3.378c-2.901,4.429 -7.297,11.141 -8.957,13.676c-0.689,1.052 -1.837,1.714 -3.092,1.785c-3.026,0.17 -11.036,0.622 -16.322,0.919c-1.265,0.071 -2.414,-0.735 -2.776,-1.949c-0.362,-1.214 0.157,-2.518 1.254,-3.152l3.142,-1.814l-4.711,-8.159Zm-6.812,-11.799l-4.318,0c-3.142,0 -6.045,1.676 -7.616,4.397l-8.307,14.387l14.577,8.416l10.684,-18.504l-5.02,-8.696Zm3.584,0l11.403,19.75c0.428,0.743 0.174,1.692 -0.568,2.12l-3.147,1.817l14.778,-0.832c0.272,-0.015 0.521,-0.159 0.67,-0.387l8.11,-12.382l-3.146,1.817c-0.743,0.428 -1.692,0.174 -2.12,-0.569c-0,0 -3.054,-5.289 -5.126,-8.877c-0.878,-1.52 -2.5,-2.457 -4.256,-2.457l-16.598,0Z"/><text x="0" y="116" fill="#000000" font-size="5px" font-weight="bold" font-family="'Helvetica Neue', Helvetica, Arial-Unicode, Arial, Sans-serif">Created by Zach Bogart</text><text x="0" y="121" fill="#000000" font-size="5px" font-weight="bold" font-family="'Helvetica Neue', Helvetica, Arial-Unicode, Arial, Sans-serif">from the Noun Project</text></svg>