<svg xmlns="http://www.w3.org/2000/svg" xmlns:xlink="http://www.w3.org/1999/xlink" version="1.1" x="0px" y="0px" viewBox="0 0 50 62.5" enable-background="new 0 0 50 50" xml:space="preserve"><path d="M44.213,48H30.336v-3.898c2.557-1.346,4.307-4.026,4.307-7.11c0-2.07-0.794-3.954-2.085-5.38  c-0.01-0.01-0.014-0.023-0.024-0.032l-0.023-0.021c-0.392-0.425-0.824-0.809-1.298-1.141L19.713,20.305l11.164-9.452  c0.005-0.004,0.006-0.01,0.011-0.014c0.152-0.109,0.297-0.229,0.434-0.358l3.817,3.463c0.008,0.007,0.019,0.009,0.026,0.016  c0.076,0.065,0.16,0.115,0.25,0.154c0.028,0.012,0.055,0.023,0.083,0.033c0.101,0.033,0.204,0.056,0.311,0.056c0,0,0.001,0,0.002,0  l0,0c0.001,0,0.001,0,0.001,0c0.118,0,0.235-0.029,0.35-0.072c0.029-0.011,0.057-0.023,0.085-0.037  c0.027-0.013,0.057-0.02,0.083-0.036l3.109-1.886c0.473-0.286,0.623-0.901,0.337-1.374c-0.286-0.472-0.901-0.622-1.374-0.336  l-2.472,1.499l-3.517-3.19c0.144-0.424,0.239-0.869,0.239-1.341c0-1.003-0.368-1.914-0.958-2.637l2.813-2.552l2.472,1.499  c0.162,0.098,0.341,0.145,0.518,0.145c0.338,0,0.668-0.171,0.856-0.481c0.286-0.472,0.136-1.087-0.337-1.374l-3.109-1.886  c-0.017-0.01-0.035-0.01-0.052-0.019c-0.064-0.035-0.132-0.053-0.201-0.072c-0.056-0.016-0.109-0.036-0.167-0.042  c-0.068-0.007-0.135,0.002-0.203,0.01c-0.06,0.006-0.117,0.009-0.174,0.025c-0.062,0.018-0.116,0.05-0.174,0.08  c-0.06,0.031-0.118,0.06-0.172,0.103c-0.015,0.012-0.033,0.016-0.048,0.029l-3.64,3.301c-0.499-0.21-1.047-0.327-1.621-0.327  c-1.026,0-1.955,0.385-2.686,0.999L8.201,14.876c-2.013,0.941-3.414,2.98-3.414,5.345c0,1.555,0.609,2.966,1.595,4.022l13.52,17.162  c0.235,0.357,0.502,0.69,0.791,1.004l0.018,0.022c0.002,0.004,0.007,0.004,0.01,0.008c0.619,0.669,1.347,1.234,2.16,1.662V48h-8.854  c-0.552,0-1,0.447-1,1s0.448,1,1,1h9.854h5.457h14.877c0.553,0,1-0.447,1-1S44.766,48,44.213,48z M26.607,43.025  c-1.711,0-3.255-0.719-4.354-1.867L21.53,40.24c-0.604-0.938-0.958-2.053-0.958-3.249c0-3.327,2.708-6.034,6.035-6.034  c1.236,0,2.387,0.375,3.345,1.016l1.174,1.032c0.94,1.064,1.517,2.458,1.517,3.986C32.643,40.318,29.936,43.025,26.607,43.025z   M16.594,20.225l9.935,8.736c-4.234,0.042-7.686,3.373-7.932,7.556l-8.198-10.407c0.098,0.005,0.194,0.015,0.292,0.015  C13.944,26.124,16.592,23.478,16.594,20.225z M14.685,15.883c-0.004-0.003-0.009-0.004-0.014-0.008  c-0.617-0.565-1.351-1.004-2.165-1.268l11.757-7.123c0.023,1.828,1.225,3.361,2.875,3.912l-8.944,7.573L14.685,15.883z   M30.652,7.431c0,1.212-0.985,2.198-2.196,2.198c-1.212,0-2.198-0.986-2.198-2.198c0-0.599,0.242-1.141,0.632-1.538l0.9-0.545  c0.211-0.068,0.433-0.114,0.666-0.114C29.667,5.233,30.652,6.219,30.652,7.431z M10.69,16.318c2.152,0,3.903,1.751,3.903,3.903  c0,2.152-1.751,3.903-3.903,3.903c-1.075,0-2.049-0.437-2.756-1.142l-0.531-0.674c-0.386-0.605-0.617-1.318-0.617-2.087  C6.787,18.069,8.538,16.318,10.69,16.318z M24.879,48v-3.167c0.558,0.123,1.135,0.192,1.729,0.192s1.171-0.069,1.729-0.192V48  H24.879z"/><text x="0" y="65" fill="#000000" font-size="5px" font-weight="bold" font-family="'Helvetica Neue', Helvetica, Arial-Unicode, Arial, Sans-serif">Created by Alex Burte</text><text x="0" y="70" fill="#000000" font-size="5px" font-weight="bold" font-family="'Helvetica Neue', Helvetica, Arial-Unicode, Arial, Sans-serif">from the Noun Project</text></svg>