<svg xmlns="http://www.w3.org/2000/svg" version="1.1" viewBox="-5.0 -10.0 110.0 135.0">
 <path d="m50.328 9.25c-3.8398 0-7.2812 1.9883-9.1992 5.3086l-8.7109 15.078c-0.96875 1.6719-3.1094 2.25-4.7812 1.2812s-2.25-3.1094-1.2812-4.7812l8.7109-15.078c3.1797-5.5195 8.8906-8.8086 15.262-8.8086s12.07 3.2891 15.262 8.8086l10.922 18.91 1.9883-7.3516c0.51172-1.8711 2.4297-2.9688 4.2891-2.4609 1.8711 0.51172 2.9688 2.4297 2.4609 4.2891l-4.0391 14.891c-0.078126 1.1211-0.69922 2.1797-1.7383 2.7812-0.55078 0.32031-1.1484 0.46875-1.75 0.46875h-0.039062-0.03125c-0.30078 0-0.60938-0.039063-0.92188-0.12109l-15.551-4.2188c-1.8711-0.51172-2.9688-2.4297-2.4609-4.2891 0.51172-1.8711 2.4297-2.9688 4.2891-2.4609l7.4414 2.0195-10.941-18.949c-1.9219-3.3203-5.3594-5.3086-9.1992-5.3086zm44.012 51.609-8.0391-13.941c-0.96875-1.6719-3.1094-2.25-4.7812-1.2812s-2.25 3.1094-1.2812 4.7812l8.0391 13.941c1.9219 3.3203 1.9219 7.2891 0 10.621-1.9219 3.3203-5.3594 5.3086-9.1992 5.3086h-20.289l5.3789-5.4219c1.3594-1.3711 1.3516-3.5898-0.019531-4.9492-1.3711-1.3594-3.5898-1.3516-4.9492 0.019531l-11.352 11.43c-0.64844 0.66016-1.0195 1.5508-1.0195 2.4805 0 0.92969 0.37891 1.8203 1.0312 2.4688l11.43 11.352c0.67969 0.67969 1.5781 1.0195 2.4688 1.0195 0.89063 0 1.8008-0.33984 2.4805-1.0312 1.3594-1.3711 1.3516-3.5898-0.019531-4.9492l-5.4609-5.4219h20.309c6.3711 0 12.07-3.2891 15.262-8.8086 3.1914-5.5195 3.1797-12.102 0-17.621zm-55.449 19.43h-17.309c-3.8398 0-7.2812-1.9883-9.1992-5.3086-1.9219-3.3203-1.9219-7.2891 0-10.621l10.328-17.898 1.8906 7.3008c0.41016 1.5781 1.8281 2.6211 3.3906 2.6211 0.28906 0 0.57812-0.039062 0.87891-0.10937 1.8711-0.48047 3-2.3906 2.5117-4.2617l-4-15.48c-0.19922-0.92188-0.76953-1.7695-1.6602-2.2812-0.33984-0.19922-0.71094-0.30859-1.0703-0.39062-0.070313-0.011719-0.12891-0.039063-0.19922-0.050781-0.12109-0.019532-0.23828-0.011719-0.35938-0.019532-0.10938 0-0.21875-0.019531-0.33984 0-0.078125 0-0.14844 0.019532-0.23047 0.03125-0.14844 0.019532-0.28906 0.03125-0.44141 0.070313l-15.602 4.0312c-1.8711 0.48047-3 2.3906-2.5117 4.2617 0.48047 1.8711 2.3984 2.9883 4.2617 2.5117l7.5391-1.9492-10.449 18.102c-3.1797 5.5195-3.1797 12.102 0 17.621 3.1797 5.5195 8.8906 8.8086 15.262 8.8086h17.309c1.9297 0 3.5-1.5703 3.5-3.5 0-1.9297-1.5703-3.5-3.5-3.5z"/>
<text x="0.0" y="117.5" font-size="5.0" font-weight="bold" font-family="Arbeit Regular, Helvetica, Arial-Unicode, Arial, Sans-serif" fill="#000000">Created by Kyle Knapp</text><text x="0.0" y="122.5" font-size="5.0" font-weight="bold" font-family="Arbeit Regular, Helvetica, Arial-Unicode, Arial, Sans-serif" fill="#000000">from Noun Project</text></svg>